Coordinates
version=1
nRows=14
nColumns=63
inDegrees=yes

Units are S.I. units (second, meters, Newtons, ...)
If the header above contains a line with 'inDegrees', this indicates whether rotational values are in degrees (yes) or radians (no).

endheader
time	pelvis_tilt	pelvis_list	pelvis_rotation	pelvis_tx	pelvis_ty	pelvis_tz	hip_flexion_r	hip_adduction_r	hip_rotation_r	knee_angle_r	knee_angle_r_beta	ankle_angle_r	subtalar_angle_r	mtp_angle_r	hip_flexion_l	hip_adduction_l	hip_rotation_l	knee_angle_l	knee_angle_l_beta	ankle_angle_l	subtalar_angle_l	mtp_angle_l	L5_S1_Flex_Ext	L5_S1_Lat_Bending	L5_S1_axial_rotation	L4_L5_Flex_Ext	L4_L5_Lat_Bending	L4_L5_axial_rotation	L3_L4_Flex_Ext	L3_L4_Lat_Bending	L3_L4_axial_rotation	L2_L3_Flex_Ext	L2_L3_Lat_Bending	L2_L3_axial_rotation	L1_L2_Flex_Ext	L1_L2_Lat_Bending	L1_L2_axial_rotation	L1_T12_Flex_Ext	L1_T12_Lat_Bending	L1_T12_axial_rotation	Abs_r3	Abs_r2	Abs_r1	Abs_t1	Abs_t2	neck_flexion	neck_bending	neck_rotation	arm_flex_r	arm_add_r	arm_rot_r	elbow_flex_r	pro_sup_r	wrist_flex_r	wrist_dev_r	arm_flex_l	arm_add_l	arm_rot_l	elbow_flex_l	pro_sup_l	wrist_flex_l	wrist_dev_l
2.466667	5.276028	-12.920986	93.252551	0.144648	0.908453	0.374960	14.272298	-2.111736	-24.436077	21.117000	0.368561	34.132263	18.496886	0.000000	18.426913	-4.533227	-4.028787	24.596310	0.429287	34.178859	0.769919	0.000000	-0.247569	-0.301619	2.292224	-0.459760	-0.401153	2.435488	-0.406731	-0.733357	2.435488	-0.282946	-0.733357	2.005696	-0.229892	-0.615062	1.862432	-0.141461	-0.467208	1.719168	-1.768360	-3.411976	12.748660	0.000000	0.000000	13.971716	3.894946	-23.984695	1.087711	-9.691504	-15.147241	73.230957	86.482928	-13.235100	13.156666	19.784841	2.780936	149.328773	0.386957	1.239686	8.215751	-23.634520
2.483333	5.290908	-12.776122	93.442138	0.143742	0.909652	0.374183	13.875472	-2.115409	-24.768154	20.782802	0.362728	33.756435	18.511405	0.000000	17.956662	-4.398690	-3.661272	23.984653	0.418611	33.999000	1.141986	0.000000	-0.246912	-0.280660	2.297912	-0.458540	-0.373278	2.441531	-0.405652	-0.682398	2.441531	-0.282196	-0.682398	2.010673	-0.229282	-0.572323	1.867053	-0.141085	-0.434743	1.723434	-1.763667	-3.174886	12.780295	0.000000	0.000000	14.144215	3.630275	-23.909549	1.199942	-9.884258	-14.771105	69.651339	86.364203	-13.576269	11.955035	20.202252	3.042340	149.055213	0.383441	1.203073	7.462925	-23.669317
2.500000	5.286792	-12.656613	93.598369	0.142806	0.910741	0.373370	13.514832	-2.139762	-25.077657	20.472299	0.357309	33.409449	18.533427	0.000000	17.523154	-4.251028	-3.295648	23.424838	0.408841	33.824818	1.459225	0.000000	-0.241446	-0.262488	2.299275	-0.448390	-0.349109	2.442980	-0.396672	-0.638213	2.442980	-0.275949	-0.638213	2.011866	-0.224207	-0.535265	1.868161	-0.137962	-0.406594	1.724457	-1.724626	-2.969316	12.787880	0.000000	0.000000	14.426018	3.409205	-23.834727	1.261913	-10.087600	-14.488181	66.126401	86.307375	-13.792792	10.557551	20.570353	3.283744	148.441431	0.393257	1.176386	6.574862	-23.704686
2.516667	5.274240	-12.525286	93.717414	0.141826	0.911742	0.372490	13.135328	-2.163533	-25.328254	20.148652	0.351660	33.088307	18.552766	0.000000	17.087994	-4.100175	-2.952855	22.917639	0.399988	33.679117	1.706249	0.000000	-0.235552	-0.244192	2.294181	-0.437444	-0.324775	2.437568	-0.386989	-0.593728	2.437568	-0.269213	-0.593728	2.007409	-0.218734	-0.497956	1.864022	-0.134595	-0.378253	1.720636	-1.682526	-2.762346	12.759548	0.000000	0.000000	14.805227	3.259361	-23.625214	1.309486	-10.339697	-14.311614	62.724470	86.351356	-13.904449	9.199492	20.907125	3.481056	147.668990	0.407336	1.128607	5.881713	-23.721843
2.533333	5.253386	-12.397779	93.825545	0.140779	0.912605	0.371570	12.761032	-2.197763	-25.574681	19.840046	0.346274	32.796013	18.580275	0.000000	16.689146	-3.941538	-2.595764	22.492127	0.392562	33.570010	1.849542	0.000000	-0.226448	-0.225720	2.274470	-0.420537	-0.300208	2.416624	-0.372032	-0.548815	2.416624	-0.258808	-0.548815	1.990161	-0.210280	-0.460288	1.848007	-0.129393	-0.349640	1.705852	-1.617499	-2.553389	12.649920	0.000000	0.000000	15.260278	3.175710	-23.262339	1.378106	-10.650839	-14.229010	59.459377	86.438597	-13.925760	7.861421	21.198714	3.598923	146.467856	0.428778	1.115553	5.758439	-23.705330
2.550000	5.219716	-12.247949	93.899812	0.139692	0.913355	0.370610	12.361430	-2.241165	-25.775666	19.529850	0.340860	32.533523	18.605288	0.000000	16.293276	-3.775118	-2.276283	22.136205	0.386350	33.518500	1.901253	0.000000	-0.218015	-0.206527	2.253244	-0.404875	-0.274681	2.394072	-0.358176	-0.502150	2.394072	-0.249169	-0.502150	1.971588	-0.202448	-0.421150	1.830761	-0.124574	-0.319910	1.689933	-1.557257	-2.336274	12.531866	0.000000	0.000000	15.753819	3.118989	-22.761023	1.425214	-11.029318	-14.307623	56.459281	86.529895	-13.940729	6.709617	21.500255	3.628366	145.203272	0.447689	1.096384	6.463361	-23.663755
2.566667	5.183734	-12.067121	93.921340	0.138576	0.914029	0.369630	11.936158	-2.280907	-25.913520	19.224619	0.335533	32.278609	18.631171	0.000000	15.891153	-3.630119	-2.076089	21.850619	0.381365	33.544115	1.937794	0.000000	-0.210874	-0.184722	2.238994	-0.391615	-0.245680	2.378931	-0.346446	-0.449133	2.378931	-0.241008	-0.449133	1.959120	-0.195818	-0.376685	1.819183	-0.120494	-0.286135	1.679246	-1.506255	-2.089614	12.452613	0.000000	0.000000	16.235802	3.065947	-22.154562	1.409250	-11.450924	-14.623823	53.842651	86.602937	-13.886314	5.830248	21.791471	3.592560	144.071691	0.464657	1.086342	7.427818	-23.630170
2.583333	5.138523	-11.851261	93.897690	0.137462	0.914637	0.368643	11.483700	-2.325108	-25.990335	18.926616	0.330332	32.034920	18.656597	0.000000	15.483693	-3.500989	-2.005910	21.637790	0.377651	33.645102	1.974855	0.000000	-0.206216	-0.161463	2.234117	-0.382964	-0.214746	2.373750	-0.338792	-0.392582	2.373750	-0.235684	-0.392582	1.954853	-0.191492	-0.329256	1.815220	-0.117832	-0.250107	1.675588	-1.472980	-1.826504	12.425491	0.000000	0.000000	16.677273	2.996505	-21.481578	1.282669	-11.890514	-15.197176	51.754989	86.625146	-13.826093	5.327510	22.066147	3.485682	143.386029	0.477350	1.093924	8.010357	-23.600425
2.600000	5.072752	-11.609110	93.814011	0.136411	0.915187	0.367676	11.027523	-2.382922	-25.976475	18.649941	0.325503	31.824816	18.679611	0.000000	15.076272	-3.376962	-2.065794	21.486299	0.375007	33.792676	1.971992	0.000000	-0.203927	-0.139161	2.242008	-0.378713	-0.185084	2.382133	-0.335032	-0.338356	2.382133	-0.233068	-0.338356	1.961757	-0.189367	-0.283777	1.821631	-0.116524	-0.215560	1.681506	-1.456630	-1.574217	12.469375	0.000000	0.000000	17.059601	2.916355	-20.793836	1.024770	-12.323390	-16.037247	50.287755	86.601182	-13.741126	5.214180	22.332349	3.293682	143.325264	0.484978	1.137891	7.771112	-23.559574
2.616667	4.989325	-11.345165	93.676089	0.135457	0.915699	0.366766	10.580380	-2.453037	-25.881764	18.404715	0.321223	31.648350	18.702416	0.000000	14.676727	-3.267630	-2.274542	21.397202	0.373452	33.980809	1.995603	0.000000	-0.204586	-0.118347	2.264634	-0.379936	-0.157402	2.406173	-0.336114	-0.287749	2.406173	-0.233821	-0.287749	1.981554	-0.189978	-0.241333	1.840015	-0.116900	-0.183320	1.698475	-1.461336	-1.338765	12.595213	0.000000	0.000000	17.391095	2.822836	-20.131689	0.624910	-12.739013	-17.147845	49.497782	86.528595	-13.627408	5.480883	22.621420	3.024591	143.888288	0.487767	1.211799	6.662240	-23.513286
2.633333	4.881657	-11.065883	93.490696	0.134599	0.916213	0.365920	10.148140	-2.542805	-25.689626	18.184004	0.317371	31.517159	18.727388	0.000000	14.280484	-3.157475	-2.608200	21.342678	0.372500	34.172200	2.061868	0.000000	-0.207458	-0.100286	2.296073	-0.385271	-0.133380	2.439578	-0.340833	-0.243835	2.439578	-0.237104	-0.243835	2.009064	-0.192646	-0.204503	1.865560	-0.118542	-0.155343	1.722055	-1.481854	-1.134454	12.770071	0.000000	0.000000	17.666089	2.727821	-19.484179	0.120810	-13.173661	-18.400064	49.346578	86.419537	-13.607510	5.995319	22.940087	2.688266	145.052846	0.486042	1.306221	4.487100	-23.431586
2.650000	4.755784	-10.798925	93.224152	0.133846	0.916711	0.365203	9.780615	-2.649514	-25.385207	18.013471	0.314394	31.430907	18.745543	0.000000	13.924347	-3.040286	-2.988696	21.341178	0.372474	34.330929	2.054919	0.000000	-0.209141	-0.084050	2.352348	-0.388396	-0.111787	2.499370	-0.343598	-0.204359	2.499370	-0.239027	-0.204359	2.058304	-0.194208	-0.171395	1.911283	-0.119503	-0.130194	1.764261	-1.493873	-0.950792	13.083054	0.000000	0.000000	17.915143	2.613250	-18.884078	-0.506833	-13.640958	-19.819574	49.879474	86.313808	-13.671029	6.871446	23.328918	2.345040	146.678567	0.480288	1.404810	1.475711	-23.318110
2.666667	4.604861	-10.503498	92.900650	0.133221	0.917337	0.364541	9.407044	-2.769295	-24.981986	17.848729	0.311519	31.359529	18.764007	0.000000	13.516870	-2.892562	-3.327521	21.295558	0.371678	34.387939	1.904940	0.000000	-0.214453	-0.071588	2.418854	-0.398260	-0.095212	2.570032	-0.352325	-0.174058	2.570032	-0.245098	-0.174058	2.116497	-0.199141	-0.145982	1.965319	-0.122538	-0.110889	1.814140	-1.531815	-0.809814	13.452939	0.000000	0.000000	18.085310	2.500211	-18.326742	-1.144320	-14.142219	-21.228545	50.885520	86.167931	-13.824924	7.832073	23.841356	1.979973	148.321824	0.474962	1.492315	-1.495864	-23.193132
2.683333	4.435686	-10.215491	92.535365	0.132685	0.918032	0.363954	9.066785	-2.904630	-24.521544	17.701708	0.308953	31.310447	18.780861	0.000000	13.108840	-2.719093	-3.615144	21.230285	0.370538	34.343464	1.644340	0.000000	-0.218379	-0.062681	2.497931	-0.405552	-0.083365	2.654052	-0.358775	-0.152401	2.654052	-0.249586	-0.152401	2.185690	-0.202787	-0.127818	2.029569	-0.124782	-0.097092	1.873448	-1.559860	-0.709054	13.892744	0.000000	0.000000	18.222149	2.404549	-17.830596	-1.789670	-14.689900	-22.581416	52.338113	85.971894	-14.021245	8.860686	24.490135	1.645153	149.898068	0.471415	1.566460	-4.419331	-23.010398
